<svg xmlns="http://www.w3.org/2000/svg" width="240" height="36">
    <path fill="#112E51" fill-rule="evenodd" d="M232.004 13.167v21.277h-6.988V13.167h-7.984V6.734h22.956v6.433h-7.984zm-26.452 21.772l-4.75-9.401h-3.732v9.401h-6.987V6.734h13.567c6.012 0 9.424 4.144 9.424 9.387 0 4.905-2.843 7.528-5.403 8.458l5.526 10.36h-7.645zm-1.874-21.772h-6.109v5.938h5.707c1.951 0 3.517-1.061 3.482-3.053-.027-1.622-1.445-2.885-3.08-2.885zM171.91 34.978c-8.986 0-13.267-4.907-13.267-11.73V6.734h7.486v16.264c0 3.287 1.96 5.657 5.759 5.657 3.758 0 5.718-2.37 5.718-5.657V6.734h7.486v16.473c0 6.905-4.197 11.771-13.182 11.771zm-31.969.31c-8.576 0-15.008-5.908-15.008-14.352 0-8.444 6.432-14.351 15.008-14.351 8.574 0 14.965 5.907 14.965 14.351s-6.391 14.352-14.965 14.352zm0-22.38c-4.625 0-7.651 3.495-7.651 8.028 0 4.493 3.026 8.029 7.651 8.029 4.623 0 7.608-3.536 7.608-8.029 0-4.533-2.985-8.028-7.608-8.028zm-29.836 16.057c2.69 0 5.087-1.831 6.012-4.035l6.222 2.911c-1.808 3.537-5.465 7.447-12.234 7.447-8.617 0-15.175-5.824-15.175-14.352 0-8.568 6.558-14.351 15.175-14.351 6.769 0 10.426 3.786 12.234 7.405l-6.222 2.953c-.925-2.205-3.322-4.035-6.012-4.035-4.581 0-7.818 3.452-7.818 8.028 0 4.534 3.237 8.029 7.818 8.029zm-19.48-15.134c-.86.392-1.82.589-2.882.589-1.315 0-2.317-.256-3.004-.767-.687-.51-1.032-1.253-1.032-2.229 0-1.583.517-2.785 1.547-3.605 1.032-.822 2.385-1.232 4.059-1.232 1.33 0 2.342.263 3.038.788.695.525 1.043 1.298 1.043 2.317 0 .932-.247 1.758-.74 2.475-.494.717-1.169 1.272-2.029 1.664zm-17.288 17.48c-.154.455-.23.825-.23 1.114 0 .56.26.84.78.84.933 0 1.769-.977 2.503-2.93l.432-.839h.194l-.602 1.541c-1.04 3.016-3.155 4.524-6.347 4.524-1.979 0-3.351-.615-4.116-1.844-.391-.657-.585-1.429-.585-2.316 0-.985.223-2.122.672-3.407l5.113-15.823c.217-.63.325-1.1.325-1.416 0-.343-.123-.515-.369-.515-.577 0-1.263.44-2.057 1.32-.795.878-1.698 2.365-2.708 4.458-1.011 2.094-3.353 9.303-4.421 12.705l-1.819 6.216h-8.46l6.919-23.759c.241-.819.362-1.341.362-1.564 0-.299-.151-.448-.453-.448-1.099 0-2.332 1.23-3.695 3.691-1.364 2.46-4.141 10.56-5.618 14.99l-2.344 7.09h-7.715l7.008-24.541c.135-.492.204-.871.204-1.141 0-.521-.242-.783-.724-.783-.889 0-1.703.962-2.441 2.886l-1.063 2.797h-1.277l1.309-3.636c.612-1.651 1.511-2.862 2.698-3.635 1.186-.772 2.544-1.159 4.075-1.159 1.621 0 2.793.391 3.512 1.171.72.78 1.079 1.805 1.079 3.078 0 .696-.099 1.454-.297 2.272l-.529 2.045c.888-2.03 1.826-3.673 2.812-4.93.988-1.258 2.074-2.178 3.261-2.761 1.186-.583 2.529-.875 4.029-.875 2.755 0 4.132 1.235 4.132 3.703 0 .955-.183 2.068-.551 3.34l-.252.84c.949-2.014 1.935-3.6 2.962-4.758 1.025-1.159 2.081-1.969 3.168-2.431 1.087-.463 2.28-.694 3.582-.694 2.815 0 4.224 1.22 4.224 3.658 0 .97-.222 2.098-.666 3.385l-6.016 18.541zm11.695-13.143c1.548 0 2.684.37 3.409 1.107.724.739 1.087 1.686 1.087 2.841 0 .683-.119 1.366-.358 2.048l-2.186 6.652c-.141.418-.212.766-.212 1.046 0 .501.246.751.739.751.845 0 1.604-.898 2.279-2.694l.909-2.402h.824l-1.078 3.133c-1.013 2.938-3.075 4.407-6.184 4.407-1.464 0-2.597-.341-3.399-1.024-.802-.682-1.203-1.692-1.203-3.028 0-.946.211-2.054.633-3.321l1.658-5.275c.155-.404.232-.759.232-1.066 0-.486-.204-.73-.612-.73-.45 0-.865.202-1.245.605-.38.404-.76 1.101-1.14 2.089l-.481 1.241h-.823l.692-1.972c1.084-2.938 3.237-4.408 6.459-4.408z"/>
    <path fill="#0071BC" fill-rule="evenodd" d="M26.862 9.068c.006-.039-.2-.191-.187-.237.009-.047-.212.037-.132.203 0 0 .314.073.319.034zm-4.554 6.255c-.082-.027-.169.052-.188.084a1.07 1.07 0 0 1-.012.288c-.169.142-.006.122.039.122.097.119-.015.145-.034.16-.019.014 0 .11.001.147-.119-.007-.117.02-.126.118.025.155.085.116.123.115.043-.125.193-.27.193-.27.017-.052-.006-.215-.006-.25-.074-.027-.05-.218-.009-.241a.98.98 0 0 0 .019-.273zm3.32-5.66s.162.025.103-.118c-.085-.104-.275-.078-.103.118zm.319.184c-.062.029.204.427.547.553 0 0 .333-.034.403-.196-.119-.152-.301-.188-.453-.306-.179-.051-.437-.075-.497-.051zm11.481 17.101c-.32-.175-.294-.622-.31-.674-.361.022-.229-.124-.165-.153.013-.176-.229-.866-.246-.981-.141-.974-.382-1.4-.461-1.592-.096-.3-.229-1.102-.229-1.256-.405-1.116-.947-1.502-1.455-1.596-.613-.035-.555.351-.761.431-.342-.05-.372.181-.384.221-.057-.029-.337.022-.48.096-.303.294-.896 1.675-.959 1.784-.453.22-.721.792-.818.883-.125-.062-.238-.317-.324-.369-.064-.039-.214.086-.333.148-.377-.205-.593-.652-.622-.73-.08-.182.046-.527.064-.668-.046-.911.851-1.109.913-1.134.59-.464.6-.601.615-.719-.038-.505.069-.981.104-.962-.023-.442.142-.426.211-.454.069-.029.076.249.162.31.165-.112.074-.215.12-.316a.555.555 0 0 0 .318-.482c-.04-.17-.125-.38-.206-.375-.679-.015-.112-.237-.029-.255.07-.051-.062-.141-.085-.25-.011-.107.155-.316.155-.345.089-.38-.018-1.087-.082-1.352-.061-.265-.718-.709-.827-.787-.11-.079-.104-.237-.098-.294.349-.588.559-.538.612-.611.052-.214-.251-.528-.37-.68-.12-.154-.111-.436-.132-.56-.052-.125-.166-.016-.303-.051.239-.284-.304-.215-.445-.153-.668-.47-.983-.256-1.086-.375-.104-.117-.377-.351-.458-.372-.074.015-.567-.007-.738-.014-.434-.175-.319-.408-.332-.543-.56-.713-1.034-.458-1.118-.39-.087.067-.262.057-.371.039-.107-.096-.543-.402-.816-.42-.4-.124-.287-.39-.526-.367-.239.023-.136.205-.136.278-.361.012-.828.022-.738.084.092.063.139.136.087.221-.462.306-.748.6-.639 1.121.075.544.406.658.48.691.148-.064.229-.103.281-.113 0 .097.153.238.212.266-.31.3-.618.227-.954.233-.338.006-.32.131-.365.221.075.287.372.3.516.334.142.036.164.113.183.182.138.052.228.138.177.193-.235.169-.4-.147-.503-.238-.108-.101-.177.013-.103.113.074.102.19.386.154.476-.235.147-.245-.351-.245-.413-.087-.204-.354-.406-.444-.458-.51.192-.361.777-.361.969 0 .192.367.601.457.786.091.227.113.902.04 1.077-.236.064-.136-.21-.184-.31 0-.821-.217-.895-.309-.901-.058.074.035.718.119.828.087.108.029.373.087.492.531.284.228.362.177.351-.041-.063-.035-.198-.16-.096-.126.108-.178.029-.194-.006-.04-.204-.086-.413-.155-.448-.103.035-.19.381-.261.476-.075.097-.172.426-.269.454-.131-.063-.08-.215-.131-.256-.138.039-.19.12-.23.109-.279-.419-.154-.703-.147-.787.393-.566.057-.543-.013-.578-.023-.096.12-.255.177-.374.045-.226-.074-.534-.061-.594.035-.084.126-.17.12-.249-.098-.064-.298.101-.332.134-.036.035-.036.211-.075.362-.187.147-.235.528-.229.691-.233-.131-.36.543-.457.674-.297-.56-.367-.374-.367-.374-.239.013-.171.259-.136.358.313.357-.132.329-.241.306-.119-.074-.136-.141-.08-.164.09-.023.068-.118.012-.137-.39-.232-.2.25-.19.267.126.124-.016.779-.006.91.261.147.167.164.127.25-.195.016-.214-.006-.276-.096-.101-.368-.256-.16-.267-.073-.361-.04-.228.056-.228.056s.147 0 .189.04c.051.159.365.185.496.214 0 .214-.244.192-.354.163-.513-.322-.473-.163-.457-.073.016.09.361.527.37.578-.051-.007-.142.006-.244 0 .067.052-.013.907.021 1.059.442.169-.044.248-.135.248-.007.215-.509 1.225-.645 1.484-.446.307-.355.458-.297.482.075 0 .309-.265.371-.255-.081.095-.171.346-.2.396-.148-.086-.189-.05-.154.096.496.498.41 1.388.416 1.479.007.09-.389.509-.458.607-.067.097-.074.324-.038.442.227.243.576 1.206.621 1.307.498-.016.297.165.297.165s-.183.183-.251.244c.013.023.406.572.406.572l.474-.192-.023.141s-.338.243-.4.26c.016.016.361.77.361.77l.319.022s.068.16-.239.182c.068.068.262 1.574.262 1.574l.435.124s-.309.124-.446.259c-.067 1.949-.515 3.139-.686 3.398-.511.563-.657 1.088-.695 1.275h15.132c.026-.219-.066-.639.234-.586.348.061.393-.221.37-.323.262-.09.194-.396.194-.531.125-.057.2-.234.263-.301-.092-.159-.007-1.121.04-1.24.741-.358 1.084-.764 1.148-.872.057-.119-.11-.589-.074-.714.04-.14.28-.322.331-.413.013-.134-.125-.181-.132-.271.105-.152.481-.368.64-.368.353.058.438.329.548.368.212-.022.193-.34.212-.447-.006-.339-.013-1.473.061-1.631.194-.254.149-.617.092-.662zM18.109 10.226c-.036-.782.398-.712.457-.769 0-.068.057-.147.16-.068.104.147.298-.089.343-.102.045-.012.319-.022.332-.045.138-.147.342-.147.389-.09-.171.204-.148.227.01.307.251.012.343-.182.468-.237.126-.036.538 0 .731-.036.171-.124.491-.533.548-.668.263-.182.697-.159.858-.123.103.181.787.169.948.136.102.022.228.16.386.214.801-.057.778.113.698.159-.584-.056-.114.013-.401.09.298.103.768.601 1.017.794.47.136.332-.148.264-.215-.114-.205-.114-.646-.013-.68.103-.023.068-.192-.009-.295.045-.169.238-.147.238-.147s.033.14.205.084c.17-.057.24.067.331.182.126.067.41-.09.457-.102.046-.013.138.182.252.169.112-.012.08-.035.193-.136.137-.035.4.124.571.124.171-.045.262-.17.355-.192.08-.01.238.26.309.204.068-.057.113-.193.183-.182.068.013.137.113.251.16.172-.057.126-.295 0-.362-.376-.067-.65-.374-.696-.419 0-.057.148-.204.126-.259-.046 0-.161-.035-.319-.057-.035-.057-.262-.125-.457-.192-.378-.035.147-.25.286-.272.112-.035.112-.237.057-.227-.057.012-.023-.351-.012-.432-.011-.066-.239-.316-.32-.463-.023-.125.275-.441.252-.543-.023-.08-.242-.148-.526-.205-.444.25-.172.432-.126.476.036.036.458.68.526.828-.228.384-.262.057-.275-.113-.033-.124-.489-.895-.558-.975-.057-.066-.137.014-.17.17-.297-.022-.287.103-.287.25-.206.079-.355.112-.593.249-.013-.646-.32-.464-.732-.205-.4.26-.434.068-.434-.044-.059-.013-.768.012-.915-.147-.081-.295-.012-.872.08-1.179.229-.442.103-.464-.047-.464-.159.182-.637.09-.856.112-.216.035-1.05.487-1.256.556-.207.067-1.442.045-2.251.159-.835-.044-.71.113-.767.25-.058.134-.638.431-.857.533-.103-.012-.252.08-.387.294-.251.091-.413.556-.572.623-.183.012-.524-.419-.582-.419-.058 0-.149.249-.229.384-.08.068-.342-.044-.468-.089-.103-.068-.068-.318-.194-.431-.148-.068-.457.191-1.028.373-.742.113-.742-.386-.754-.566-.068-.192-.387-.409-.548-.431.206-.374-.251-.476-.377-.588.067-.487-.309-.352-.468-.409-.081-.079-.136-.294-.171-.397-.103-.067-.413-.012-.354.057.057.068.067.171-.013.193-.113-.057-.16-.237-.239-.283-.113.386-.251.418-.297.395-.046-.022.113-.339.126-.441-.08-.102-1.142-.034-1.222-.012-.081.022.036.112-.103.272-.251.226-.148-.147-.103-.205.161-.112.422-.271.468-.396-.161-.102-.297.08-.435.147-.126.012-.332.26-.412.396-.114.058-.288.148-.365.409-.136.272-.206.307-.239.227-.035-.566.138-.963.184-1.121-.046-.285.206-.307.331-.476.035-.329.217-.375.332-.455.022-.306.216-.361.193-.453-.022-.079.036-.192.081-.25.045-.057.217-.067.355-.159.183-.329.822-.68.856-.735 0-.058-.034-.16.046-.215.08-.057.309.012.468-.01.526-.125.263-.374.183-.431-.09-.036-1.016-.045-1.2-.045-.182 0-.638.351-.718.397-.081.011-.332.056-.513.045-.31.203-.858.837-1.039.939-.183 0-.663.374-.868.589-.193.102-.49.283-.513.454-.023.168-.228.463-.308.555-.092-.023-.436 0-.661.022-.515.748-1.451.93-1.761.94-.274-.057-.513-.113-.994-.079-.662.316-.959.872-1.485 1.054-.903.022-1.268.294-1.495.431-.036.249.502.409.766.509.342-.09.526.328.538.543-.137.17-.069.431.113.669.365.022 1.176.316 1.437.475.423-.035 2.342.681 2.594.838.571-.124 1.233.578 1.302.624.068.044.399.044.776.057.333.079.983.101 1.771.035.88-.205.925.408.96.655-.217.352-.16.432-.045.669 1.279-.228 1.404.667 1.428.78-.216.214-.239.408-.125.543.113.136.125.237.16.499-.561.76-.206.792-.035.805.342-.181.593-.17.686-.102.091.431-.252.793-.377 1.042.262.928.594.645.708.453 0-.271.32-.577.481-.702.091-.113.171-.387.228-.589.513-.544.391-.69.436-.93.102-.214.228-.441.171-.6.331-.112.251-.419.309-.498.057-.081.593-.5.616-.657 0-.035-.013-.453-.013-.508.013-.058.206-.113.252-.238.022-.079.148-.43.216-.453.08 0 .103.306.08.463-.216.261-.137.726-.125.828.045.16.445.045.525 0-.023-.089.171-.408.274-.486.035-.09.045-.486.08-.521.104.035.32.227.469.227.183-.068.342-.464.502-.431.126.045.184.182.171.226a1.1 1.1 0 0 0-.216.272c-.023.182.068.25-.014.306-.215-.011-.25.136-.296.272-.08.103-.056.25-.056.295-.024.044-.138 0-.24.022.149.227.206.306.354.329-.113-.192.104-.272.206-.329-.102-.237.08-.284.161-.307.046-.079.023-.112.058-.214.067-.034.261-.022.332-.022 0-.035.112-.16.16-.215.184.012.139-.045.31-.295zM16.45 6.4c.045.006.132-.164.132-.164.274-.312 0-.351-.161-.409-.213.12-.017.566.029.573zm3.968 5.717s.318-.119.12-.34c-.077-.018-.375.017-.12.34zm1.014-.671c.041.144.041.17.247.195 0 0 .377-.358.318-.509-.095-.035-.19.035-.19-.076 0-.118.06-.398-.119-.484-.061.024-.163.229-.127.323 0 0-.283.035-.129.551zm-2.168 3.903c.025.055.052.062.097.039 0 0 .134-.088.073-.178-.033-.015-.244-.011-.17.139zm9.694-6.665l.029.015c.022.016.239.22.284.21a.85.85 0 0 0 .235-.192c.206-.058.387.113.736.198.349.096.239-.131.245-.198a.6.6 0 0 0 .126-.301c-.2.007-.212-.05-.338-.124.006-.339-.367-.374-.487-.397-.205-.089-.37.064-.228.109.232.05.149.22.113.26-.142-.023-.451.232-.503.334-.138-.007-.138-.131-.171-.169-.022.035-.11.137-.155.187-.016.036.114.068.114.068zm-9.294 5.807c-.163.28.245.523.245.523.149-.024.035-.329.028-.418-.05-.101-.166-.138-.273-.105zm.515-4.039s.036-.127-.111-.135c-.06.04-.017.135.111.135zm1.637-.178s.266.093.136-.178c-.128-.272-.307.304-.136.178zm-.727.527s.179.043.111-.153c-.111-.11-.335-.017-.111.153z"/>
</svg>
